<svg width="48" height="49" viewBox="0 0 48 49" fill="none" xmlns="http://www.w3.org/2000/svg">
<path d="M34 38.0127H8C7.46957 38.0127 6.96086 37.802 6.58579 37.4269C6.21071 37.0518 6 36.5431 6 36.0127V12.0127C6 11.4823 6.21071 10.9736 6.58579 10.5985C6.96086 10.2234 7.46957 10.0127 8 10.0127H34M34 38.0127H40C40.5304 38.0127 41.0391 37.802 41.4142 37.4269C41.7893 37.0518 42 36.5431 42 36.0127V12.0127C42 11.4823 41.7893 10.9736 41.4142 10.5985C41.0391 10.2234 40.5304 10.0127 40 10.0127H34M34 38.0127V36.0127M34 10.0127V12.0127M34 18.0147V18.0127M34 24.0147V24.0127M34 30.0147V30.0127" stroke="#FFD7A3" stroke-width="2" stroke-linecap="round" stroke-linejoin="round"/>
<path d="M14 26.0127L18 30.0127L26 18.0127" stroke="#FFD7A3" stroke-width="2" stroke-linecap="round" stroke-linejoin="round"/>
</svg>
