<svg width="42" height="42" viewBox="0 0 42 42" fill="none" xmlns="http://www.w3.org/2000/svg">
<path d="M11 3.68834C13.9417 1.98664 17.3572 1.0127 21 1.0127C32.0456 1.0127 41 9.967 41 21.0127C41 32.0583 32.0456 41.0127 21 41.0127C9.9543 41.0127 1 32.0583 1 21.0127C1 17.3699 1.97394 13.9544 3.67564 11.0127" stroke="#9747FF" stroke-width="1.5" stroke-linecap="round"/>
<path d="M26.6568 35.1549C25.914 37.0121 25.032 38.4851 24.0614 39.4903C23.0908 40.4953 22.0506 41.0127 21 41.0127C19.9494 41.0127 18.9092 40.4953 17.9386 39.4903C16.9679 38.4851 16.086 37.0121 15.3431 35.1549C14.6003 33.2977 14.011 31.0929 13.609 28.6663C13.2069 26.2399 13 23.6391 13 21.0127C13 18.3863 13.2069 15.7855 13.609 13.359C14.011 10.9325 14.6003 8.72773 15.3431 6.87055C16.086 5.01339 16.9679 3.5402 17.9386 2.53512C18.9092 1.53002 19.9494 1.0127 21 1.0127C22.0506 1.0127 23.0908 1.53002 24.0614 2.5351C25.032 3.5402 25.914 5.01339 26.6568 6.87055C27.3998 8.72773 27.989 10.9325 28.391 13.359C28.793 15.7855 29 18.3863 29 21.0127C29 23.6391 28.793 26.2399 28.391 28.6663" stroke="#9747FF" stroke-width="1.5" stroke-linecap="round"/>
<path d="M1 21.0127H17M41 21.0127H25" stroke="#9747FF" stroke-width="1.5" stroke-linecap="round"/>
</svg>
