<svg width="24" height="24" viewBox="0 0 24 24" fill="none" xmlns="http://www.w3.org/2000/svg">
<path d="M23.0619 10.4464C23.2018 10.5858 23.3127 10.7514 23.3884 10.9337C23.4641 11.116 23.5031 11.3115 23.5031 11.5089C23.5031 11.7064 23.4641 11.9018 23.3884 12.0842C23.3127 12.2665 23.2018 12.4321 23.0619 12.5714L13.0619 22.5714C12.9226 22.7113 12.757 22.8222 12.5747 22.898C12.3923 22.9737 12.1968 23.0126 11.9994 23.0126C11.802 23.0126 11.6065 22.9737 11.4242 22.898C11.2419 22.8222 11.0763 22.7113 10.9369 22.5714L0.936928 12.5714C0.797399 12.4319 0.686718 12.2663 0.611205 12.084C0.535692 11.9017 0.496826 11.7063 0.496826 11.5089C0.496826 11.3116 0.535692 11.1162 0.611205 10.9339C0.686718 10.7516 0.797399 10.586 0.936928 10.4464C1.07646 10.3069 1.2421 10.1962 1.42441 10.1207C1.60671 10.0452 1.8021 10.0063 1.99943 10.0063C2.19675 10.0063 2.39215 10.0452 2.57445 10.1207C2.75675 10.1962 2.9224 10.3069 3.06193 10.4464L12.0007 19.3827L20.9394 10.4427C21.079 10.3035 21.2446 10.1931 21.4268 10.118C21.6091 10.0428 21.8043 10.0043 22.0015 10.0046C22.1986 10.005 22.3937 10.0442 22.5757 10.12C22.7576 10.1958 22.9229 10.3067 23.0619 10.4464ZM10.9369 12.5714C11.0763 12.7113 11.2419 12.8222 11.4242 12.898C11.6065 12.9737 11.802 13.0126 11.9994 13.0126C12.1968 13.0126 12.3923 12.9737 12.5747 12.898C12.757 12.8222 12.9226 12.7113 13.0619 12.5714L23.0619 2.57145C23.2015 2.43192 23.3121 2.26627 23.3876 2.08397C23.4632 1.90167 23.502 1.70627 23.502 1.50895C23.502 1.31162 23.4632 1.11623 23.3876 0.933928C23.3121 0.751624 23.2015 0.585979 23.0619 0.446449C22.9224 0.30692 22.7568 0.196239 22.5744 0.120726C22.3921 0.0452133 22.1968 0.00634766 21.9994 0.00634766C21.8021 0.00634766 21.6067 0.0452133 21.4244 0.120726C21.2421 0.196239 21.0765 0.30692 20.9369 0.446449L12.0007 9.3827L3.06193 0.446449C2.78014 0.164657 2.39794 0.00634765 1.99943 0.00634766C1.60091 0.00634766 1.21872 0.164657 0.936928 0.446449C0.655136 0.728242 0.496826 1.11043 0.496826 1.50895C0.496826 1.90746 0.655136 2.28966 0.936928 2.57145L10.9369 12.5714Z" fill="#D6D2D2"/>
</svg>
